# xmcd
#
# Track frame offsets:
#	150
#	16073
#	29030
#	38957
#	53212
#	63048
#	74253
#	87982
#	97022
#	107643
#	121193
#
# Disc length: 1742 seconds
#
# Revision: 1
# Processed by: cddbd v1.5.1PL0 Copyright (c) Steve Scherf et al.
# Submitted via: audiograbber 1.83.01
#
DISCID=8d06cc0b
DTITLE=Claude King - Cowboy in the White House
DYEAR=1900
DGENRE=Country
TTITLE0=Cowboy in the white House
TTITLE1=Wolverton Mountain
TTITLE2=I'm building a Bridge
TTITLE3=Sink the Bismark
TTITLE4=The Night i cried
TTITLE5=Sometimes you lose, sometimes you win
TTITLE6=North to Alaska
TTITLE7=I'll spend a Livetime loving you
TTITLE8=Watchman
TTITLE9=Little Buddy
TTITLE10=A little bitty Heart
EXTD=
EXTT0=
EXTT1=
EXTT2=
EXTT3=
EXTT4=
EXTT5=
EXTT6=
EXTT7=
EXTT8=
EXTT9=
EXTT10=
PLAYORDER=
